<?xml version="1.0" encoding="UTF-8" standalone="no"?>
<!-- Created with Inkscape (http://www.inkscape.org/) -->

<svg
   xmlns:dc="http://purl.org/dc/elements/1.1/"
   xmlns:cc="http://creativecommons.org/ns#"
   xmlns:rdf="http://www.w3.org/1999/02/22-rdf-syntax-ns#"
   xmlns:svg="http://www.w3.org/2000/svg"
   xmlns="http://www.w3.org/2000/svg"
   xmlns:sodipodi="http://sodipodi.sourceforge.net/DTD/sodipodi-0.dtd"
   xmlns:inkscape="http://www.inkscape.org/namespaces/inkscape"
   version="1.1"
   id="svg4555"
   xml:space="preserve"
   width="303.06018"
   height="80"
   viewBox="0 0 303.06018 80"
   sodipodi:docname="logo-footer.svg"
   inkscape:version="0.92.1 r15371"><metadata
     id="metadata4561"><rdf:RDF><cc:Work
         rdf:about=""><dc:format>image/svg+xml</dc:format><dc:type
           rdf:resource="http://purl.org/dc/dcmitype/StillImage" /><dc:title></dc:title></cc:Work></rdf:RDF></metadata><defs
     id="defs4559"><clipPath
       clipPathUnits="userSpaceOnUse"
       id="clipPath4585"><path
         d="M 0,311.811 H 870.236 V 0 H 0 Z"
         id="path4583"
         inkscape:connector-curvature="0" /></clipPath></defs><sodipodi:namedview
     pagecolor="#ffffff"
     bordercolor="#666666"
     borderopacity="1"
     objecttolerance="10"
     gridtolerance="10"
     guidetolerance="10"
     inkscape:pageopacity="0"
     inkscape:pageshadow="2"
     inkscape:window-width="1600"
     inkscape:window-height="840"
     id="namedview4557"
     showgrid="false"
     fit-margin-top="0"
     fit-margin-left="0"
     fit-margin-right="0"
     fit-margin-bottom="0"
     inkscape:zoom="0.87045351"
     inkscape:cx="494.48588"
     inkscape:cy="137.53295"
     inkscape:window-x="0"
     inkscape:window-y="0"
     inkscape:window-maximized="1"
     inkscape:current-layer="g4563" /><g
     id="g4563"
     inkscape:groupmode="layer"
     inkscape:label="ALTURAS_LOGO_CMYK_NEG"
     transform="matrix(1.3333333,0,0,-1.3333333,-85.671465,150.34107)"><g
       id="g4567"
       transform="matrix(0.30646551,0,0,0.30646551,123.90748,79.227984)"><path
         d="M 0,0 -7.035,24.897 H -7.466 L -14.503,0 Z M -22.513,43.402 H 8.009 L 32.688,-30.201 H 8.55 l -3.785,13.425 h -24.031 l -3.784,-13.425 h -24.138 z"
         style="fill:#ffffff;fill-opacity:1;fill-rule:nonzero;stroke:none"
         id="path4569"
         inkscape:connector-curvature="0" /></g><g
       id="g4571"
       transform="matrix(0.30646551,0,0,0.30646551,140.9458,92.529136)"><path
         d="M 0,0 H 22.834 V -55.312 H 51.52 V -73.603 H 0 Z"
         style="fill:#ffffff;fill-opacity:1;fill-rule:nonzero;stroke:none"
         id="path4573"
         inkscape:connector-curvature="0" /></g><g
       id="g4575"
       transform="matrix(0.30646551,0,0,0.30646551,166.1825,86.923732)"><path
         d="M 0,0 H -19.482 V 18.291 H 42.214 V 0 H 22.839 V -55.313 H 0 Z"
         style="fill:#ffffff;fill-opacity:1;fill-rule:nonzero;stroke:none"
         id="path4577"
         inkscape:connector-curvature="0" /></g><g
       id="g4579"
       transform="matrix(0.30646551,0,0,0.30646551,44.562088,36.587967)"><g
         id="g4581"
         clip-path="url(#clipPath4585)"><g
           id="g4587"
           transform="translate(590.5337,148.5469)"><path
             d="m 0,0 c 4.656,0 8.229,3.904 8.229,8.557 0,4.647 -3.573,8.66 -8.229,8.66 H -11.143 V 0 Z M -33.981,33.99 H 3.574 c 17.207,0 28.79,-11.036 28.79,-24.244 0,-13.207 -8.659,-19.158 -15.045,-21.973 L 34.527,-39.613 H 9.202 l -12.775,25.221 h -7.57 v -25.221 h -22.838 z"
             style="fill:#ffffff;fill-opacity:1;fill-rule:nonzero;stroke:none"
             id="path4589"
             inkscape:connector-curvature="0" /></g><g
           id="g4591"
           transform="translate(482.562,182.5366)"><path
             d="m 0,0 v -44.483 c 0,-8.336 4.875,-12.02 10.823,-12.02 5.956,0 10.827,3.684 10.827,12.02 V 0 h 22.837 v -46.436 c 0,-21.428 -16.346,-28.898 -33.664,-28.898 -17.317,0 -33.656,7.47 -33.656,28.898 V 0 Z"
             style="fill:#ffffff;fill-opacity:1;fill-rule:nonzero;stroke:none"
             id="path4593"
             inkscape:connector-curvature="0" /></g><g
           id="g4595"
           transform="translate(688.5073,139.1348)"><path
             d="M 0,0 -7.044,24.897 H -7.471 L -14.515,0 Z M -22.521,43.402 H 8.007 L 32.682,-30.201 H 8.547 l -3.79,13.425 h -24.028 l -3.792,-13.425 h -24.134 z"
             style="fill:#ffffff;fill-opacity:1;fill-rule:nonzero;stroke:none"
             id="path4597"
             inkscape:connector-curvature="0" /></g><g
           id="g4599"
           transform="translate(753.8569,133.1787)"><path
             d="m 0,0 c 3.573,-3.353 10.608,-7.687 20.349,-7.687 7.147,0 9.202,2.924 9.202,5.197 0,2.058 -1.412,3.571 -6.82,4.441 -9.417,1.512 -9.85,1.512 -15.911,3.027 -9.955,2.493 -18.08,9.097 -18.08,21.541 0,11.803 11.801,24.574 31.609,24.574 16.777,0 26.846,-7.364 30.311,-10.828 L 37.016,26.519 c -3.788,3.143 -10.39,6.28 -17.207,6.28 -7.148,0 -9.09,-2.926 -9.09,-4.979 0,-1.841 1.081,-3.354 6.6,-4.222 9.417,-1.515 9.739,-1.515 15.582,-2.923 12.017,-2.924 19.162,-9.74 19.162,-21.757 0,-11.149 -10.5,-24.895 -31.714,-24.895 -19.479,0 -31.068,8.879 -34.204,12.234 z"
             style="fill:#ffffff;fill-opacity:1;fill-rule:nonzero;stroke:none"
             id="path4601"
             inkscape:connector-curvature="0" /></g><g
           id="g4603"
           transform="translate(135.6577,199.8394)"><path
             d="m 0,0 c -8.981,-0.251 -33.22,-3.773 -47.396,-32.459 11.701,3.036 26.066,4.319 39.905,5.728 C -6.85,-19.242 -4.959,-9.493 0,0"
             style="fill:#00adef;fill-opacity:1;fill-rule:nonzero;stroke:none"
             id="path4605"
             inkscape:connector-curvature="0" /></g><g
           id="g4607"
           transform="translate(137.3145,127.71)"><path
             d="M 0,0 C -0.526,-7.961 -2.463,-18.725 -8.122,-29.067 4.776,-26.696 31.586,-18.844 41.052,6.165 40.966,6.139 40.885,6.092 40.804,6.068 31.071,2.814 15.564,1.687 0,0"
             style="fill:#f9b00b;fill-opacity:1;fill-rule:nonzero;stroke:none"
             id="path4609"
             inkscape:connector-curvature="0" /></g><g
           id="g4611"
           transform="translate(157.1177,219.7754)"><path
             d="m 0,0 c -7.87,-5.719 -13.254,-12.661 -16.95,-19.748 -4.964,-9.499 -6.855,-19.243 -7.497,-26.752 8.816,0.914 17.412,1.854 24.976,3.334 13.405,2.628 23.554,6.922 25.878,15.588 L 45.936,-13.3 39.766,28.761 C 39.662,28.687 18.89,13.723 0,0"
             style="fill:#f9b00b;fill-opacity:1;fill-rule:nonzero;stroke:none"
             id="path4613"
             inkscape:connector-curvature="0" /></g><g
           id="g4615"
           transform="translate(105.0986,123.3418)"><path
             d="m 0,0 c -10.832,-2.66 -19.367,-6.778 -22.675,-13.76 l -0.492,-1.788 -0.263,-0.187 c -0.011,-0.021 -17.409,-12.673 -17.415,-12.708 l 5.586,-42.143 c 0,0 16.776,11.701 38.503,27.482 7.364,5.356 12.537,11.757 16.2,18.358 5.743,10.31 7.735,21.064 8.313,29.007 C 18.065,3.278 8.356,2.073 0,0"
             style="fill:#00adef;fill-opacity:1;fill-rule:nonzero;stroke:none"
             id="path4617"
             inkscape:connector-curvature="0" /></g><g
           id="g4619"
           transform="translate(186.1626,188.2705)"><path
             d="m 0,0 c -2.325,-8.666 -12.485,-12.962 -25.884,-15.587 -7.561,-1.475 -16.163,-2.426 -24.971,-3.317 -13.85,-1.411 -28.208,-2.683 -39.898,-5.708 -0.348,-0.098 -0.703,-0.179 -1.039,-0.265 -33.977,-9.239 -28.659,-43.06 -14.804,-51.591 0.038,0.158 0.121,0.3 0.168,0.452 l -0.009,0.045 0.032,0.031 c 0.208,0.677 0.463,1.336 0.749,1.967 3.317,6.976 11.852,11.096 22.68,13.757 8.365,2.075 18.066,3.284 27.767,4.271 15.556,1.587 31.065,2.616 40.838,5.807 0.078,0.03 0.148,0.064 0.237,0.107 C 17.039,-39.663 13.83,-8.503 0,0"
             style="fill:#ed1c24;fill-opacity:1;fill-rule:nonzero;stroke:none"
             id="path4621"
             inkscape:connector-curvature="0" /></g></g></g></g></svg>